HIERARCHY
ROOT Hips
{
	OFFSET 0.00000 0.00000 0.00000
	CHANNELS 6 Xposition Yposition Zposition Zrotation Yrotation Xrotation 
	JOINT LHipJoint
	{
		OFFSET 0 0 0
		CHANNELS 3 Zrotation Yrotation Xrotation
		JOINT LeftUpLeg
		{
			OFFSET 1.36337 -1.57426 1.11036
			CHANNELS 3 Zrotation Yrotation Xrotation
			JOINT LeftLeg
			{
				OFFSET 2.38468 -6.55187 0.00000
				CHANNELS 3 Zrotation Yrotation Xrotation
				JOINT LeftFoot
				{
					OFFSET 2.37166 -6.51609 0.00000
					CHANNELS 3 Zrotation Yrotation Xrotation
					JOINT LeftToeBase
					{
						OFFSET 0.29078 -0.79891 2.01393
						CHANNELS 3 Zrotation Yrotation Xrotation
						End Site
						{
							OFFSET 0.00000 -0.00000 1.07924
						}
					}
				}
			}
		}
	}
	JOINT RHipJoint
	{
		OFFSET 0 0 0
		CHANNELS 3 Zrotation Yrotation Xrotation
		JOINT RightUpLeg
		{
			OFFSET -1.36349 -1.57426 1.11036
			CHANNELS 3 Zrotation Yrotation Xrotation
			JOINT RightLeg
			{
				OFFSET -2.29562 -6.30717 0.00000
				CHANNELS 3 Zrotation Yrotation Xrotation
				JOINT RightFoot
				{
					OFFSET -2.40985 -6.62100 0.00000
					CHANNELS 3 Zrotation Yrotation Xrotation
					JOINT RightToeBase
					{
						OFFSET -0.23197 -0.63733 1.92232
						CHANNELS 3 Zrotation Yrotation Xrotation
						End Site
						{
							OFFSET -0.00000 -0.00000 1.01562
						}
					}
				}
			}
		}
	}
	JOINT LowerBack
	{
		OFFSET 0 0 0
		CHANNELS 3 Zrotation Yrotation Xrotation
		JOINT Spine
		{
			OFFSET -0.08565 2.03602 -0.24562
			CHANNELS 3 Zrotation Yrotation Xrotation
			JOINT Spine1
			{
				OFFSET -0.00036 2.05693 0.00216
				CHANNELS 3 Zrotation Yrotation Xrotation
				JOINT Neck
				{
					OFFSET 0 0 0
					CHANNELS 3 Zrotation Yrotation Xrotation
					JOINT Neck1
					{
						OFFSET -0.03664 1.69515 0.31789
						CHANNELS 3 Zrotation Yrotation Xrotation
						JOINT Head
						{
							OFFSET 0.00932 1.70181 -0.46013
							CHANNELS 3 Zrotation Yrotation Xrotation
							End Site
							{
								OFFSET 0.01243 1.77620 -0.19377
							}
						}
					}
				}
				JOINT LeftShoulder
				{
					OFFSET 0 0 0
					CHANNELS 3 Zrotation Yrotation Xrotation
					JOINT LeftArm
					{
						OFFSET 3.74344 0.81315 -0.36647
						CHANNELS 3 Zrotation Yrotation Xrotation
						JOINT LeftForeArm
						{
							OFFSET 4.97185 -0.00000 -0.00000
							CHANNELS 3 Zrotation Yrotation Xrotation
							JOINT LeftHand
							{
								OFFSET 3.35811 -0.00000 0.00000
								CHANNELS 3 Zrotation Yrotation Xrotation
								JOINT LeftFingerBase
								{
									OFFSET 0 0 0
									CHANNELS 3 Zrotation Yrotation Xrotation
									JOINT LeftHandIndex1
									{
										OFFSET 0.62278 -0.00000 0.00000
										CHANNELS 3 Zrotation Yrotation Xrotation
										End Site
										{
											OFFSET 0.50210 -0.00000 0.00000
										}
									}
								}
								JOINT LThumb
								{
									OFFSET 0 0 0
									CHANNELS 3 Zrotation Yrotation Xrotation
									End Site
									{
										OFFSET 0.50976 -0.00000 0.50976
									}
								}
							}
						}
					}
				}
				JOINT RightShoulder
				{
					OFFSET 0 0 0
					CHANNELS 3 Zrotation Yrotation Xrotation
					JOINT RightArm
					{
						OFFSET -3.75385 0.50666 -0.06525
						CHANNELS 3 Zrotation Yrotation Xrotation
						JOINT RightForeArm
						{
							OFFSET -4.96493 -0.00000 -0.00000
							CHANNELS 3 Zrotation Yrotation Xrotation
							JOINT RightHand
							{
								OFFSET -3.34929 -0.00000 0.00000
								CHANNELS 3 Zrotation Yrotation Xrotation
								JOINT RightFingerBase
								{
									OFFSET 0 0 0
									CHANNELS 3 Zrotation Yrotation Xrotation
									JOINT RightHandIndex1
									{
										OFFSET -0.63804 -0.00000 0.00000
										CHANNELS 3 Zrotation Yrotation Xrotation
										End Site
										{
											OFFSET -0.51441 -0.00000 0.00000
										}
									}
								}
								JOINT RThumb
								{
									OFFSET 0 0 0
									CHANNELS 3 Zrotation Yrotation Xrotation
									End Site
									{
										OFFSET -0.52226 -0.00000 0.52226
									}
								}
							}
						}
					}
				}
			}
		}
	}
}
MOTION
Frames: 6
Frame Time: .0083333
40.3729 14.9417 2.7011 158.6630 85.0452 153.5480 0.0000 0.0000 0.0000 -16.8405 3.3327 -35.5702 11.9200 18.3566 65.7351 1.0095 -5.1712 -17.9655 0.2592 3.2758 9.0475 0.0000 0.0000 0.0000 1.0400 9.1927 -37.3513 -8.7019 -16.6120 55.0535 -0.4735 7.8873 -12.6338 -1.2049 6.9641 -19.6090 -6.0183 3.3559 29.5753 -1.7937 3.4312 9.1528 0.2592 2.0684 -6.0858 11.0473 19.7495 -12.2650 -20.1424 30.0253 14.4266 -3.5205 13.0722 11.6088 -0.0000 0.0000 0.0000 -58.7440 -22.8275 36.8420 55.3153 -54.9265 -30.4739 -0.0000 0.0000 -33.5091 30.3502 -12.5588 -7.2557 -7.1250 0.0000 -0.0000 2.1157 15.5116 -1.4738 -0.0000 0.0000 0.0000 79.1411 -8.7521 30.0399 -42.8105 49.6496 -20.5562 0.0000 -0.0000 -16.8118 -8.0139 -21.1741 2.9112 7.1250 -0.0000 -0.0000 20.4281 -50.1996 -2.7176
40.5883 15.0455 2.8104 165.8450 83.3900 161.1100 0.0000 0.0000 0.0000 -16.3955 2.5185 -34.5399 11.6172 18.2241 64.7702 0.9400 -5.7996 -17.2979 0.3107 3.5832 9.9070 0.0000 0.0000 0.0000 0.3338 11.6385 -36.1842 -7.8421 -16.0019 51.9920 -0.2024 10.6557 -10.3033 -1.5067 7.7526 -21.9651 -5.7522 2.8952 29.7400 -1.7458 2.9458 9.2376 0.3233 1.8460 -6.0365 11.0374 19.7487 -12.2512 -20.8492 30.0553 13.7417 -3.7367 13.0830 11.5036 0.0000 0.0000 0.0000 -57.9209 -25.1388 36.5310 58.0874 -55.7784 -32.7546 -0.0000 0.0000 -31.6304 29.5028 -14.3618 -7.9894 -7.1250 0.0000 -0.0000 1.3556 13.5896 -0.9994 0.0000 0.0000 0.0000 79.2707 -8.7747 30.0917 -41.9971 49.2096 -19.9383 0.0000 -0.0000 -17.1919 -9.5843 -19.9559 3.2983 7.1250 -0.0000 -0.0000 18.4152 -49.2849 -2.0073
40.7940 15.1530 2.9307 171.5650 81.6616 167.3930 0.0000 0.0000 0.0000 -15.7058 1.6799 -33.8867 11.3345 18.0949 63.8632 0.8565 -6.1685 -16.5020 0.2677 3.3283 9.1942 0.0000 0.0000 0.0000 -0.0221 13.8451 -35.2442 -7.2082 -15.5047 49.6574 0.0834 12.5790 -7.6713 -2.0554 8.9806 -25.7345 -5.3455 2.4393 30.1588 -1.5708 2.4584 9.0611 0.4303 1.6184 -6.4080 10.9444 19.7989 -12.6035 -21.1149 30.2474 13.8210 -3.7242 13.1108 11.6731 -0.0000 0.0000 0.0000 -57.4425 -26.8077 36.6473 61.0012 -56.5709 -35.1754 -0.0000 0.0000 -30.3848 29.5302 -16.4713 -9.1246 -7.1250 0.0000 -0.0000 1.1430 11.2142 -0.8991 -0.0000 0.0000 0.0000 79.2738 -9.1044 30.3565 -41.4784 48.9218 -19.5465 0.0000 -0.0000 -17.7150 -10.1199 -20.1222 3.5137 7.1250 -0.0000 -0.0000 17.9874 -49.5233 -2.0660
40.9974 15.2559 3.0654 174.5280 79.6951 170.9560 0.0000 0.0000 0.0000 -15.1606 0.8044 -33.4978 11.1061 17.9866 63.1255 0.7450 -6.2470 -15.3946 0.1803 2.7351 7.5422 0.0000 0.0000 0.0000 -0.3185 15.3653 -34.4598 -6.8137 -15.1729 48.1660 0.3275 14.0881 -5.3582 -2.9481 10.6105 -30.9773 -4.9405 1.9119 30.3012 -1.5223 1.9252 9.0813 0.4338 1.3728 -6.4219 10.7706 19.8146 -13.0252 -21.2197 30.2613 13.6850 -3.6950 13.0768 11.6965 0.0000 -0.0000 0.0000 -56.8388 -28.3979 36.5099 64.1071 -57.3086 -37.7787 -0.0000 0.0000 -28.5802 29.8746 -17.1528 -9.6153 -7.1250 0.0000 -0.0000 1.2886 10.3906 -1.0353 0.0000 -0.0000 0.0000 79.3297 -9.1176 30.8271 -41.0383 48.6732 -19.2154 0.0000 -0.0000 -18.4326 -10.1088 -20.5935 3.5883 7.1250 -0.0000 -0.0000 18.2026 -49.9720 -2.2983
41.1937 15.3527 3.2142 175.8680 77.4492 172.8830 0.0000 0.0000 0.0000 -14.6589 -0.2732 -33.2767 10.9506 17.9108 62.6211 0.6040 -6.5564 -13.9122 0.1856 2.7745 7.6516 0.0000 0.0000 0.0000 -0.4771 16.0770 -33.7520 -6.6173 -15.0009 47.4115 0.5153 14.3664 -2.1009 -2.7684 10.3103 -29.9876 -4.6256 1.4035 30.8948 -1.5236 1.3297 8.8249 0.4368 1.1006 -6.9615 10.8899 19.7108 -12.9392 -21.5101 30.0794 13.3260 -3.8555 13.0135 11.5973 -0.0000 0.0000 0.0000 -56.3826 -29.4207 36.9265 66.7354 -57.8527 -39.9975 -0.0000 0.0000 -27.1966 30.4436 -18.3713 -10.4942 -7.1250 0.0000 -0.0000 1.5048 8.9186 -1.2537 -0.0000 0.0000 0.0000 79.3441 -9.6425 31.6272 -40.7824 48.5267 -19.0234 0.0000 -0.0000 -19.1351 -10.4756 -20.4204 3.6911 7.1250 -0.0000 -0.0000 17.7828 -49.8624 -2.1931
41.3840 15.4381 3.3849 177.7780 75.0222 175.5740 0.0000 0.0000 0.0000 -13.6532 -1.4920 -33.6135 10.8550 17.8634 62.3098 0.4480 -7.1619 -12.1853 0.1970 2.8581 7.8840 0.0000 0.0000 0.0000 -0.0435 16.2941 -33.2462 -6.5427 -14.9344 47.1228 0.5210 13.4146 0.2244 -1.9810 8.8263 -25.2534 -3.9907 0.8581 31.4180 -1.3989 0.8055 8.5802 0.3828 0.8583 -7.4655 10.5536 19.5304 -13.3955 -21.7337 29.8604 13.0867 -3.9044 12.8730 11.5494 -0.0000 0.0000 0.0000 -56.1020 -30.5431 37.5068 69.1242 -58.2875 -42.0250 -0.0000 0.0000 -25.8056 31.2166 -18.8242 -11.0640 -7.1250 0.0000 -0.0000 1.9401 8.2571 -1.6423 -0.0000 0.0000 0.0000 79.2464 -10.0839 32.3902 -40.7444 48.5048 -18.9949 0.0000 -0.0000 -19.7258 -10.5061 -20.6031 3.7337 7.1250 -0.0000 -0.0000 17.8336 -50.0421 -2.2805
